<svg width="295" height="144" viewBox="0 0 295 144" fill="none" xmlns="http://www.w3.org/2000/svg">
<g filter="url(#filter0_b_51810_5431)">
<rect width="295" height="144" rx="20" fill="#3B3B3B" fill-opacity="0.5"/>
<path d="M35.472 38.912H31.872L31.26 41H30.18L32.724 32.6H34.62L37.164 41H36.084L35.472 38.912ZM33.6 33.032L32.148 37.976H35.196L33.744 33.032H33.6ZM42.6397 35.048H43.5757V41H42.6397V39.92H42.4957C42.3037 40.304 42.0517 40.608 41.7397 40.832C41.4277 41.056 41.0317 41.168 40.5517 41.168C40.2237 41.168 39.9197 41.112 39.6397 41C39.3677 40.896 39.1317 40.736 38.9317 40.52C38.7397 40.304 38.5877 40.036 38.4757 39.716C38.3717 39.396 38.3197 39.024 38.3197 38.6V35.048H39.2557V38.48C39.2557 39.104 39.3837 39.56 39.6397 39.848C39.8957 40.136 40.2877 40.28 40.8157 40.28C41.3837 40.28 41.8277 40.088 42.1477 39.704C42.4757 39.312 42.6397 38.792 42.6397 38.144V35.048ZM51.3073 38.888C51.2433 39.216 51.1313 39.52 50.9713 39.8C50.8193 40.08 50.6233 40.324 50.3833 40.532C50.1433 40.732 49.8633 40.888 49.5433 41C49.2233 41.112 48.8673 41.168 48.4753 41.168C48.0593 41.168 47.6633 41.1 47.2873 40.964C46.9193 40.828 46.5953 40.632 46.3153 40.376C46.0353 40.112 45.8113 39.792 45.6433 39.416C45.4833 39.04 45.4033 38.608 45.4033 38.12V37.976C45.4033 37.496 45.4833 37.064 45.6433 36.68C45.8113 36.296 46.0353 35.972 46.3153 35.708C46.5953 35.444 46.9193 35.24 47.2873 35.096C47.6633 34.952 48.0593 34.88 48.4753 34.88C48.8513 34.88 49.1993 34.936 49.5193 35.048C49.8393 35.16 50.1193 35.32 50.3593 35.528C50.6073 35.728 50.8073 35.968 50.9593 36.248C51.1193 36.528 51.2273 36.832 51.2833 37.16L50.3473 37.376C50.3233 37.168 50.2633 36.968 50.1673 36.776C50.0793 36.576 49.9553 36.404 49.7953 36.26C49.6433 36.108 49.4553 35.988 49.2313 35.9C49.0073 35.812 48.7473 35.768 48.4513 35.768C48.1633 35.768 47.8913 35.824 47.6353 35.936C47.3873 36.04 47.1673 36.192 46.9753 36.392C46.7833 36.584 46.6313 36.816 46.5193 37.088C46.4153 37.36 46.3633 37.656 46.3633 37.976V38.12C46.3633 38.456 46.4153 38.76 46.5193 39.032C46.6313 39.296 46.7833 39.52 46.9753 39.704C47.1673 39.888 47.3913 40.032 47.6473 40.136C47.9033 40.232 48.1793 40.28 48.4753 40.28C48.7713 40.28 49.0273 40.236 49.2433 40.148C49.4673 40.052 49.6553 39.932 49.8073 39.788C49.9673 39.636 50.0913 39.464 50.1793 39.272C50.2753 39.08 50.3393 38.88 50.3713 38.672L51.3073 38.888ZM52.883 35.048H54.755V32.6H55.691V35.048H57.995V35.912H55.691V39.776C55.691 40.016 55.799 40.136 56.015 40.136H57.707V41H55.679C55.407 41 55.183 40.912 55.007 40.736C54.839 40.56 54.755 40.336 54.755 40.064V35.912H52.883V35.048ZM62.2826 33.272C62.2826 33.04 62.3626 32.844 62.5226 32.684C62.6906 32.516 62.8906 32.432 63.1226 32.432C63.3546 32.432 63.5506 32.516 63.7106 32.684C63.8786 32.844 63.9626 33.04 63.9626 33.272C63.9626 33.504 63.8786 33.704 63.7106 33.872C63.5506 34.032 63.3546 34.112 63.1226 34.112C62.8906 34.112 62.6906 34.032 62.5226 33.872C62.3626 33.704 62.2826 33.504 62.2826 33.272ZM60.5786 40.136H62.6666V35.912H60.7946V35.048H63.6026V40.136H65.5466V41H60.5786V40.136ZM73.3983 38.096C73.3983 38.592 73.3143 39.032 73.1463 39.416C72.9863 39.792 72.7703 40.112 72.4983 40.376C72.2263 40.632 71.9063 40.828 71.5383 40.964C71.1783 41.1 70.8023 41.168 70.4103 41.168C70.0103 41.168 69.6303 41.1 69.2703 40.964C68.9103 40.828 68.5943 40.632 68.3223 40.376C68.0503 40.112 67.8303 39.792 67.6623 39.416C67.5023 39.032 67.4223 38.592 67.4223 38.096V37.952C67.4223 37.464 67.5023 37.032 67.6623 36.656C67.8303 36.272 68.0503 35.948 68.3223 35.684C68.6023 35.42 68.9223 35.22 69.2823 35.084C69.6423 34.948 70.0183 34.88 70.4103 34.88C70.8023 34.88 71.1783 34.948 71.5383 35.084C71.8983 35.22 72.2143 35.42 72.4863 35.684C72.7663 35.948 72.9863 36.272 73.1463 36.656C73.3143 37.032 73.3983 37.464 73.3983 37.952V38.096ZM70.4103 40.28C70.6983 40.28 70.9623 40.232 71.2023 40.136C71.4503 40.032 71.6663 39.884 71.8503 39.692C72.0343 39.5 72.1783 39.272 72.2823 39.008C72.3863 38.736 72.4383 38.432 72.4383 38.096V37.952C72.4383 37.632 72.3863 37.34 72.2823 37.076C72.1783 36.804 72.0343 36.572 71.8503 36.38C71.6663 36.188 71.4503 36.04 71.2023 35.936C70.9543 35.824 70.6903 35.768 70.4103 35.768C70.1303 35.768 69.8663 35.824 69.6183 35.936C69.3703 36.04 69.1543 36.188 68.9703 36.38C68.7863 36.572 68.6423 36.804 68.5383 37.076C68.4343 37.34 68.3823 37.632 68.3823 37.952V38.096C68.3823 38.432 68.4343 38.736 68.5383 39.008C68.6423 39.272 68.7863 39.5 68.9703 39.692C69.1543 39.884 69.3663 40.032 69.6063 40.136C69.8543 40.232 70.1223 40.28 70.4103 40.28ZM76.0659 41H75.1299V35.048H76.0659V36.056H76.2099C76.5779 35.272 77.2179 34.88 78.1299 34.88C78.8179 34.88 79.3659 35.096 79.7739 35.528C80.1819 35.952 80.3859 36.592 80.3859 37.448V41H79.4499V37.64C79.4499 37.016 79.3099 36.548 79.0299 36.236C78.7499 35.924 78.3699 35.768 77.8899 35.768C77.3219 35.768 76.8739 35.964 76.5459 36.356C76.2259 36.74 76.0659 37.256 76.0659 37.904V41ZM90.5093 38.312C90.5333 38.904 90.7173 39.38 91.0613 39.74C91.4053 40.1 91.8853 40.28 92.5013 40.28C92.7813 40.28 93.0253 40.248 93.2333 40.184C93.4413 40.12 93.6173 40.032 93.7613 39.92C93.9133 39.808 94.0333 39.68 94.1213 39.536C94.2173 39.384 94.2933 39.224 94.3493 39.056L95.2373 39.296C95.0693 39.848 94.7573 40.3 94.3013 40.652C93.8533 40.996 93.2453 41.168 92.4773 41.168C92.0533 41.168 91.6613 41.096 91.3013 40.952C90.9493 40.8 90.6453 40.588 90.3893 40.316C90.1333 40.044 89.9333 39.72 89.7893 39.344C89.6453 38.968 89.5732 38.552 89.5732 38.096V37.808C89.5732 37.392 89.6453 37.004 89.7893 36.644C89.9413 36.284 90.1493 35.976 90.4133 35.72C90.6773 35.456 90.9853 35.252 91.3373 35.108C91.6973 34.956 92.0853 34.88 92.5013 34.88C92.9893 34.88 93.4093 34.972 93.7613 35.156C94.1213 35.332 94.4133 35.552 94.6373 35.816C94.8693 36.08 95.0373 36.368 95.1413 36.68C95.2533 36.992 95.3093 37.28 95.3093 37.544V38.312H90.5093ZM92.5013 35.768C92.2373 35.768 91.9893 35.812 91.7573 35.9C91.5333 35.98 91.3333 36.096 91.1573 36.248C90.9893 36.4 90.8493 36.58 90.7373 36.788C90.6333 36.988 90.5653 37.208 90.5333 37.448H94.3733C94.3573 37.192 94.2933 36.96 94.1813 36.752C94.0773 36.544 93.9373 36.368 93.7613 36.224C93.5933 36.08 93.3973 35.968 93.1733 35.888C92.9573 35.808 92.7333 35.768 92.5013 35.768ZM98.1089 41H97.1729V35.048H98.1089V36.056H98.2529C98.6209 35.272 99.2609 34.88 100.173 34.88C100.861 34.88 101.409 35.096 101.817 35.528C102.225 35.952 102.429 36.592 102.429 37.448V41H101.493V37.64C101.493 37.016 101.353 36.548 101.073 36.236C100.793 35.924 100.413 35.768 99.9329 35.768C99.3649 35.768 98.9169 35.964 98.5889 36.356C98.2689 36.74 98.1089 37.256 98.1089 37.904V41ZM109.129 40.088H108.985C108.889 40.272 108.765 40.432 108.613 40.568C108.469 40.704 108.309 40.816 108.133 40.904C107.965 40.992 107.785 41.056 107.593 41.096C107.401 41.144 107.217 41.168 107.041 41.168C106.641 41.168 106.269 41.1 105.925 40.964C105.581 40.828 105.277 40.632 105.013 40.376C104.757 40.12 104.553 39.804 104.401 39.428C104.257 39.044 104.185 38.608 104.185 38.12V37.928C104.185 37.448 104.261 37.02 104.413 36.644C104.565 36.26 104.769 35.94 105.025 35.684C105.281 35.42 105.581 35.22 105.925 35.084C106.269 34.948 106.633 34.88 107.017 34.88C107.425 34.88 107.805 34.972 108.157 35.156C108.517 35.332 108.793 35.608 108.985 35.984H109.129V32.6H110.065V41H109.129V40.088ZM107.137 40.28C107.417 40.28 107.677 40.228 107.917 40.124C108.157 40.02 108.365 39.872 108.541 39.68C108.725 39.488 108.869 39.26 108.973 38.996C109.077 38.724 109.129 38.424 109.129 38.096V37.952C109.129 37.632 109.077 37.34 108.973 37.076C108.869 36.804 108.725 36.572 108.541 36.38C108.365 36.188 108.153 36.04 107.905 35.936C107.665 35.824 107.409 35.768 107.137 35.768C106.857 35.768 106.593 35.82 106.345 35.924C106.105 36.028 105.893 36.176 105.709 36.368C105.533 36.56 105.393 36.788 105.289 37.052C105.193 37.316 105.145 37.608 105.145 37.928V38.12C105.145 38.456 105.193 38.756 105.289 39.02C105.393 39.284 105.533 39.512 105.709 39.704C105.893 39.888 106.105 40.032 106.345 40.136C106.585 40.232 106.849 40.28 107.137 40.28ZM113.104 36.584C113.104 36.872 113.224 37.092 113.464 37.244C113.712 37.396 114.16 37.496 114.808 37.544C115.504 37.6 116.032 37.768 116.392 38.048C116.76 38.32 116.944 38.72 116.944 39.248V39.32C116.944 39.608 116.884 39.868 116.764 40.1C116.652 40.324 116.492 40.516 116.284 40.676C116.084 40.836 115.836 40.956 115.54 41.036C115.252 41.124 114.936 41.168 114.592 41.168C114.128 41.168 113.728 41.108 113.392 40.988C113.064 40.86 112.788 40.696 112.564 40.496C112.348 40.288 112.184 40.056 112.072 39.8C111.96 39.536 111.896 39.272 111.88 39.008L112.768 38.792C112.808 39.248 112.984 39.616 113.296 39.896C113.608 40.168 114.024 40.304 114.544 40.304C114.984 40.304 115.336 40.22 115.6 40.052C115.872 39.876 116.008 39.632 116.008 39.32C116.008 38.984 115.876 38.744 115.612 38.6C115.348 38.456 114.92 38.364 114.328 38.324C113.64 38.276 113.112 38.116 112.744 37.844C112.376 37.572 112.192 37.176 112.192 36.656V36.584C112.192 36.304 112.252 36.06 112.372 35.852C112.492 35.636 112.652 35.456 112.852 35.312C113.06 35.168 113.292 35.06 113.548 34.988C113.804 34.916 114.072 34.88 114.352 34.88C114.744 34.88 115.088 34.936 115.384 35.048C115.68 35.152 115.928 35.292 116.128 35.468C116.328 35.636 116.48 35.832 116.584 36.056C116.696 36.28 116.768 36.504 116.8 36.728L115.912 36.944C115.872 36.56 115.716 36.26 115.444 36.044C115.18 35.828 114.832 35.72 114.4 35.72C114.232 35.72 114.068 35.74 113.908 35.78C113.756 35.812 113.62 35.864 113.5 35.936C113.38 36.008 113.284 36.1 113.212 36.212C113.14 36.316 113.104 36.44 113.104 36.584ZM128.412 33.272C128.412 33.04 128.492 32.844 128.652 32.684C128.82 32.516 129.02 32.432 129.252 32.432C129.484 32.432 129.68 32.516 129.84 32.684C130.008 32.844 130.092 33.04 130.092 33.272C130.092 33.504 130.008 33.704 129.84 33.872C129.68 34.032 129.484 34.112 129.252 34.112C129.02 34.112 128.82 34.032 128.652 33.872C128.492 33.704 128.412 33.504 128.412 33.272ZM126.708 40.136H128.796V35.912H126.924V35.048H129.732V40.136H131.676V41H126.708V40.136ZM134.847 41H133.911V35.048H134.847V36.056H134.991C135.359 35.272 135.999 34.88 136.911 34.88C137.599 34.88 138.147 35.096 138.555 35.528C138.963 35.952 139.167 36.592 139.167 37.448V41H138.231V37.64C138.231 37.016 138.091 36.548 137.811 36.236C137.531 35.924 137.151 35.768 136.671 35.768C136.103 35.768 135.655 35.964 135.327 36.356C135.007 36.74 134.847 37.256 134.847 37.904V41ZM143.047 40.328C143.047 40.096 143.127 39.9 143.287 39.74C143.455 39.572 143.655 39.488 143.887 39.488C144.119 39.488 144.315 39.572 144.475 39.74C144.643 39.9 144.727 40.096 144.727 40.328C144.727 40.56 144.643 40.76 144.475 40.928C144.315 41.088 144.119 41.168 143.887 41.168C143.655 41.168 143.455 41.088 143.287 40.928C143.127 40.76 143.047 40.56 143.047 40.328ZM143.047 35.72C143.047 35.488 143.127 35.292 143.287 35.132C143.455 34.964 143.655 34.88 143.887 34.88C144.119 34.88 144.315 34.964 144.475 35.132C144.643 35.292 144.727 35.488 144.727 35.72C144.727 35.952 144.643 36.152 144.475 36.32C144.315 36.48 144.119 36.56 143.887 36.56C143.655 36.56 143.455 36.48 143.287 36.32C143.127 36.152 143.047 35.952 143.047 35.72Z" fill="white"/>
<path d="M32.508 78.144V63.4H50.292V68.188H37.524V75.408H38.208C38.5627 74.42 39.2213 73.5713 40.184 72.862C41.172 72.1273 42.4893 71.76 44.136 71.76C45.3773 71.76 46.492 71.9753 47.48 72.406C48.468 72.8367 49.304 73.432 49.988 74.192C50.672 74.952 51.1913 75.864 51.546 76.928C51.926 77.992 52.116 79.1573 52.116 80.424V80.652C52.116 81.9947 51.888 83.2613 51.432 84.452C51.0013 85.6427 50.3553 86.694 49.494 87.606C48.658 88.4927 47.6193 89.202 46.378 89.734C45.1367 90.266 43.7053 90.532 42.084 90.532C40.4627 90.532 39.0313 90.3167 37.79 89.886C36.5487 89.43 35.4973 88.8093 34.636 88.024C33.8 87.2133 33.154 86.2633 32.698 85.174C32.2673 84.0593 32.052 82.856 32.052 81.564V80.652H37.068V81.108C37.068 82.4507 37.4733 83.5653 38.284 84.452C39.12 85.3133 40.336 85.744 41.932 85.744C43.528 85.744 44.782 85.3133 45.694 84.452C46.6313 83.5907 47.1 82.4 47.1 80.88C47.1 79.436 46.758 78.3593 46.074 77.65C45.39 76.9153 44.4907 76.548 43.376 76.548C42.6413 76.548 42.046 76.7127 41.59 77.042C41.134 77.346 40.8427 77.7133 40.716 78.144H32.508ZM60.9056 82.476C60.9056 83.3627 61.2222 84.1353 61.8556 84.794C62.5142 85.4273 63.5276 85.744 64.8956 85.744C66.2636 85.744 67.3402 85.3513 68.1256 84.566C68.9362 83.7553 69.3416 82.704 69.3416 81.412V77.992H68.6576C68.3029 78.8787 67.7202 79.6007 66.9096 80.158C66.0989 80.69 64.9462 80.956 63.4516 80.956C62.3116 80.956 61.2476 80.7533 60.2596 80.348C59.2969 79.9173 58.4482 79.322 57.7136 78.562C57.0042 77.802 56.4469 76.89 56.0416 75.826C55.6362 74.762 55.4336 73.584 55.4336 72.292V71.836C55.4336 70.5693 55.6616 69.3913 56.1176 68.302C56.5736 67.1873 57.2069 66.2373 58.0176 65.452C58.8536 64.6413 59.8542 64.008 61.0196 63.552C62.2102 63.096 63.5276 62.868 64.9716 62.868C66.2889 62.868 67.5176 63.0833 68.6576 63.514C69.8229 63.9447 70.8236 64.5527 71.6596 65.338C72.4956 66.098 73.1542 67.0227 73.6356 68.112C74.1169 69.176 74.3576 70.354 74.3576 71.646V81.336C74.3576 82.78 74.1169 84.072 73.6356 85.212C73.1542 86.352 72.4956 87.3147 71.6596 88.1C70.8236 88.8853 69.8356 89.4933 68.6956 89.924C67.5809 90.3293 66.3649 90.532 65.0476 90.532C63.7556 90.532 62.5522 90.3547 61.4376 90C60.3229 89.62 59.3476 89.088 58.5116 88.404C57.7009 87.6947 57.0549 86.846 56.5736 85.858C56.1176 84.87 55.8896 83.7427 55.8896 82.476H60.9056ZM64.8956 67.656C63.6036 67.656 62.5396 68.0487 61.7036 68.834C60.8676 69.594 60.4496 70.62 60.4496 71.912C60.4496 73.204 60.8676 74.2427 61.7036 75.028C62.5396 75.788 63.6036 76.168 64.8956 76.168C66.1876 76.168 67.2516 75.788 68.0876 75.028C68.9236 74.2427 69.3416 73.204 69.3416 71.912C69.3416 70.62 68.9236 69.594 68.0876 68.834C67.2516 68.0487 66.1876 67.656 64.8956 67.656Z" fill="white"/>
<path d="M30.876 106.6H31.884V110.32H35.46V106.6H36.468V115H35.46V111.256H31.884V115H30.876V106.6ZM44.0077 112.096C44.0077 112.592 43.9237 113.032 43.7557 113.416C43.5957 113.792 43.3797 114.112 43.1077 114.376C42.8357 114.632 42.5157 114.828 42.1477 114.964C41.7877 115.1 41.4117 115.168 41.0197 115.168C40.6197 115.168 40.2397 115.1 39.8797 114.964C39.5197 114.828 39.2037 114.632 38.9317 114.376C38.6597 114.112 38.4397 113.792 38.2717 113.416C38.1117 113.032 38.0317 112.592 38.0317 112.096V111.952C38.0317 111.464 38.1117 111.032 38.2717 110.656C38.4397 110.272 38.6597 109.948 38.9317 109.684C39.2117 109.42 39.5317 109.22 39.8917 109.084C40.2517 108.948 40.6277 108.88 41.0197 108.88C41.4117 108.88 41.7877 108.948 42.1477 109.084C42.5077 109.22 42.8237 109.42 43.0957 109.684C43.3757 109.948 43.5957 110.272 43.7557 110.656C43.9237 111.032 44.0077 111.464 44.0077 111.952V112.096ZM41.0197 114.28C41.3077 114.28 41.5717 114.232 41.8117 114.136C42.0597 114.032 42.2757 113.884 42.4597 113.692C42.6437 113.5 42.7877 113.272 42.8917 113.008C42.9957 112.736 43.0477 112.432 43.0477 112.096V111.952C43.0477 111.632 42.9957 111.34 42.8917 111.076C42.7877 110.804 42.6437 110.572 42.4597 110.38C42.2757 110.188 42.0597 110.04 41.8117 109.936C41.5637 109.824 41.2997 109.768 41.0197 109.768C40.7397 109.768 40.4757 109.824 40.2277 109.936C39.9797 110.04 39.7637 110.188 39.5797 110.38C39.3957 110.572 39.2517 110.804 39.1477 111.076C39.0437 111.34 38.9917 111.632 38.9917 111.952V112.096C38.9917 112.432 39.0437 112.736 39.1477 113.008C39.2517 113.272 39.3957 113.5 39.5797 113.692C39.7637 113.884 39.9757 114.032 40.2157 114.136C40.4637 114.232 40.7317 114.28 41.0197 114.28ZM49.9873 109.048H50.9233V115H49.9873V113.92H49.8433C49.6513 114.304 49.3993 114.608 49.0873 114.832C48.7753 115.056 48.3793 115.168 47.8993 115.168C47.5713 115.168 47.2673 115.112 46.9873 115C46.7153 114.896 46.4793 114.736 46.2793 114.52C46.0873 114.304 45.9353 114.036 45.8233 113.716C45.7193 113.396 45.6673 113.024 45.6673 112.6V109.048H46.6033V112.48C46.6033 113.104 46.7313 113.56 46.9873 113.848C47.2433 114.136 47.6353 114.28 48.1633 114.28C48.7313 114.28 49.1753 114.088 49.4953 113.704C49.8233 113.312 49.9873 112.792 49.9873 112.144V109.048ZM52.751 109.048H54.911V109.84H55.055C55.207 109.512 55.423 109.272 55.703 109.12C55.983 108.96 56.303 108.88 56.663 108.88C57.263 108.88 57.747 109.076 58.115 109.468C58.483 109.86 58.679 110.432 58.703 111.184L57.719 111.328C57.719 110.776 57.587 110.38 57.323 110.14C57.059 109.892 56.735 109.768 56.351 109.768C56.103 109.768 55.887 109.816 55.703 109.912C55.527 110.008 55.379 110.14 55.259 110.308C55.139 110.476 55.051 110.672 54.995 110.896C54.939 111.12 54.911 111.36 54.911 111.616V114.136H56.423V115H52.607V114.136H53.975V109.912H52.751V109.048ZM61.6706 110.584C61.6706 110.872 61.7906 111.092 62.0306 111.244C62.2786 111.396 62.7266 111.496 63.3746 111.544C64.0706 111.6 64.5986 111.768 64.9586 112.048C65.3266 112.32 65.5106 112.72 65.5106 113.248V113.32C65.5106 113.608 65.4506 113.868 65.3306 114.1C65.2186 114.324 65.0586 114.516 64.8506 114.676C64.6506 114.836 64.4026 114.956 64.1066 115.036C63.8186 115.124 63.5026 115.168 63.1586 115.168C62.6946 115.168 62.2946 115.108 61.9586 114.988C61.6306 114.86 61.3546 114.696 61.1306 114.496C60.9146 114.288 60.7506 114.056 60.6386 113.8C60.5266 113.536 60.4626 113.272 60.4466 113.008L61.3346 112.792C61.3746 113.248 61.5506 113.616 61.8626 113.896C62.1746 114.168 62.5906 114.304 63.1106 114.304C63.5506 114.304 63.9026 114.22 64.1666 114.052C64.4386 113.876 64.5746 113.632 64.5746 113.32C64.5746 112.984 64.4426 112.744 64.1786 112.6C63.9146 112.456 63.4866 112.364 62.8946 112.324C62.2066 112.276 61.6786 112.116 61.3106 111.844C60.9426 111.572 60.7586 111.176 60.7586 110.656V110.584C60.7586 110.304 60.8186 110.06 60.9386 109.852C61.0586 109.636 61.2186 109.456 61.4186 109.312C61.6266 109.168 61.8586 109.06 62.1146 108.988C62.3706 108.916 62.6386 108.88 62.9186 108.88C63.3106 108.88 63.6546 108.936 63.9506 109.048C64.2466 109.152 64.4946 109.292 64.6946 109.468C64.8946 109.636 65.0466 109.832 65.1506 110.056C65.2626 110.28 65.3346 110.504 65.3666 110.728L64.4786 110.944C64.4386 110.56 64.2826 110.26 64.0106 110.044C63.7466 109.828 63.3986 109.72 62.9666 109.72C62.7986 109.72 62.6346 109.74 62.4746 109.78C62.3226 109.812 62.1866 109.864 62.0666 109.936C61.9466 110.008 61.8506 110.1 61.7786 110.212C61.7066 110.316 61.6706 110.44 61.6706 110.584Z" fill="white"/>
<path d="M104.228 80.732C104.228 81.1053 104.153 81.46 104.004 81.796C103.873 82.1133 103.687 82.3933 103.444 82.636C103.201 82.86 102.912 83.0373 102.576 83.168C102.259 83.3173 101.923 83.392 101.568 83.392C101.195 83.392 100.849 83.3173 100.532 83.168C100.215 83.0373 99.9347 82.86 99.692 82.636C99.4493 82.3933 99.2533 82.1133 99.104 81.796C98.9733 81.46 98.908 81.1053 98.908 80.732C98.908 80.3587 98.9733 80.0133 99.104 79.696C99.2533 79.36 99.4493 79.08 99.692 78.856C99.9347 78.6133 100.215 78.4267 100.532 78.296C100.849 78.1467 101.195 78.072 101.568 78.072C101.923 78.072 102.259 78.1467 102.576 78.296C102.912 78.4267 103.201 78.6133 103.444 78.856C103.687 79.08 103.873 79.36 104.004 79.696C104.153 80.0133 104.228 80.3587 104.228 80.732ZM104.228 71.38C104.228 71.7533 104.153 72.108 104.004 72.444C103.873 72.7613 103.687 73.0413 103.444 73.284C103.201 73.508 102.912 73.6947 102.576 73.844C102.259 73.9747 101.923 74.04 101.568 74.04C101.195 74.04 100.849 73.9747 100.532 73.844C100.215 73.6947 99.9347 73.508 99.692 73.284C99.4493 73.0413 99.2533 72.7613 99.104 72.444C98.9733 72.108 98.908 71.7533 98.908 71.38C98.908 71.0067 98.9733 70.6613 99.104 70.344C99.2533 70.008 99.4493 69.728 99.692 69.504C99.9347 69.2613 100.215 69.0747 100.532 68.944C100.849 68.7947 101.195 68.72 101.568 68.72C101.923 68.72 102.259 68.7947 102.576 68.944C102.912 69.0747 103.201 69.2613 103.444 69.504C103.687 69.728 103.873 70.008 104.004 70.344C104.153 70.6613 104.228 71.0067 104.228 71.38Z" fill="white"/>
<path d="M123.508 78.144V63.4H141.292V68.188H128.524V75.408H129.208C129.563 74.42 130.221 73.5713 131.184 72.862C132.172 72.1273 133.489 71.76 135.136 71.76C136.377 71.76 137.492 71.9753 138.48 72.406C139.468 72.8367 140.304 73.432 140.988 74.192C141.672 74.952 142.191 75.864 142.546 76.928C142.926 77.992 143.116 79.1573 143.116 80.424V80.652C143.116 81.9947 142.888 83.2613 142.432 84.452C142.001 85.6427 141.355 86.694 140.494 87.606C139.658 88.4927 138.619 89.202 137.378 89.734C136.137 90.266 134.705 90.532 133.084 90.532C131.463 90.532 130.031 90.3167 128.79 89.886C127.549 89.43 126.497 88.8093 125.636 88.024C124.8 87.2133 124.154 86.2633 123.698 85.174C123.267 84.0593 123.052 82.856 123.052 81.564V80.652H128.068V81.108C128.068 82.4507 128.473 83.5653 129.284 84.452C130.12 85.3133 131.336 85.744 132.932 85.744C134.528 85.744 135.782 85.3133 136.694 84.452C137.631 83.5907 138.1 82.4 138.1 80.88C138.1 79.436 137.758 78.3593 137.074 77.65C136.39 76.9153 135.491 76.548 134.376 76.548C133.641 76.548 133.046 76.7127 132.59 77.042C132.134 77.346 131.843 77.7133 131.716 78.144H123.508ZM151.906 82.476C151.906 83.3627 152.222 84.1353 152.856 84.794C153.514 85.4273 154.528 85.744 155.896 85.744C157.264 85.744 158.34 85.3513 159.126 84.566C159.936 83.7553 160.342 82.704 160.342 81.412V77.992H159.658C159.303 78.8787 158.72 79.6007 157.91 80.158C157.099 80.69 155.946 80.956 154.452 80.956C153.312 80.956 152.248 80.7533 151.26 80.348C150.297 79.9173 149.448 79.322 148.714 78.562C148.004 77.802 147.447 76.89 147.042 75.826C146.636 74.762 146.434 73.584 146.434 72.292V71.836C146.434 70.5693 146.662 69.3913 147.118 68.302C147.574 67.1873 148.207 66.2373 149.018 65.452C149.854 64.6413 150.854 64.008 152.02 63.552C153.21 63.096 154.528 62.868 155.972 62.868C157.289 62.868 158.518 63.0833 159.658 63.514C160.823 63.9447 161.824 64.5527 162.66 65.338C163.496 66.098 164.154 67.0227 164.636 68.112C165.117 69.176 165.358 70.354 165.358 71.646V81.336C165.358 82.78 165.117 84.072 164.636 85.212C164.154 86.352 163.496 87.3147 162.66 88.1C161.824 88.8853 160.836 89.4933 159.696 89.924C158.581 90.3293 157.365 90.532 156.048 90.532C154.756 90.532 153.552 90.3547 152.438 90C151.323 89.62 150.348 89.088 149.512 88.404C148.701 87.6947 148.055 86.846 147.574 85.858C147.118 84.87 146.89 83.7427 146.89 82.476H151.906ZM155.896 67.656C154.604 67.656 153.54 68.0487 152.704 68.834C151.868 69.594 151.45 70.62 151.45 71.912C151.45 73.204 151.868 74.2427 152.704 75.028C153.54 75.788 154.604 76.168 155.896 76.168C157.188 76.168 158.252 75.788 159.088 75.028C159.924 74.2427 160.342 73.204 160.342 71.912C160.342 70.62 159.924 69.594 159.088 68.834C158.252 68.0487 157.188 67.656 155.896 67.656Z" fill="white"/>
<path d="M121.552 106.6H123.472L124.6 114.568H124.744L125.872 106.6H127.792V115H126.856V107.032H126.712L125.584 115H123.76L122.632 107.032H122.488V115H121.552V106.6ZM131.24 107.272C131.24 107.04 131.32 106.844 131.48 106.684C131.648 106.516 131.848 106.432 132.08 106.432C132.312 106.432 132.508 106.516 132.668 106.684C132.836 106.844 132.92 107.04 132.92 107.272C132.92 107.504 132.836 107.704 132.668 107.872C132.508 108.032 132.312 108.112 132.08 108.112C131.848 108.112 131.648 108.032 131.48 107.872C131.32 107.704 131.24 107.504 131.24 107.272ZM129.536 114.136H131.624V109.912H129.752V109.048H132.56V114.136H134.504V115H129.536V114.136ZM137.675 115H136.739V109.048H137.675V110.056H137.819C138.187 109.272 138.827 108.88 139.739 108.88C140.427 108.88 140.975 109.096 141.383 109.528C141.791 109.952 141.995 110.592 141.995 111.448V115H141.059V111.64C141.059 111.016 140.919 110.548 140.639 110.236C140.359 109.924 139.979 109.768 139.499 109.768C138.931 109.768 138.483 109.964 138.155 110.356C137.835 110.74 137.675 111.256 137.675 111.904V115ZM148.335 109.048H149.271V115H148.335V113.92H148.191C147.999 114.304 147.747 114.608 147.435 114.832C147.123 115.056 146.727 115.168 146.247 115.168C145.919 115.168 145.615 115.112 145.335 115C145.063 114.896 144.827 114.736 144.627 114.52C144.435 114.304 144.283 114.036 144.171 113.716C144.067 113.396 144.015 113.024 144.015 112.6V109.048H144.951V112.48C144.951 113.104 145.079 113.56 145.335 113.848C145.591 114.136 145.983 114.28 146.511 114.28C147.079 114.28 147.523 114.088 147.843 113.704C148.171 113.312 148.335 112.792 148.335 112.144V109.048ZM151.231 109.048H153.103V106.6H154.039V109.048H156.343V109.912H154.039V113.776C154.039 114.016 154.147 114.136 154.363 114.136H156.055V115H154.027C153.755 115 153.531 114.912 153.355 114.736C153.187 114.56 153.103 114.336 153.103 114.064V109.912H151.231V109.048ZM159.466 112.312C159.49 112.904 159.674 113.38 160.018 113.74C160.362 114.1 160.842 114.28 161.458 114.28C161.738 114.28 161.982 114.248 162.19 114.184C162.398 114.12 162.574 114.032 162.718 113.92C162.87 113.808 162.99 113.68 163.078 113.536C163.174 113.384 163.25 113.224 163.306 113.056L164.194 113.296C164.026 113.848 163.714 114.3 163.258 114.652C162.81 114.996 162.202 115.168 161.434 115.168C161.01 115.168 160.618 115.096 160.258 114.952C159.906 114.8 159.602 114.588 159.346 114.316C159.09 114.044 158.89 113.72 158.746 113.344C158.602 112.968 158.53 112.552 158.53 112.096V111.808C158.53 111.392 158.602 111.004 158.746 110.644C158.898 110.284 159.106 109.976 159.37 109.72C159.634 109.456 159.942 109.252 160.294 109.108C160.654 108.956 161.042 108.88 161.458 108.88C161.946 108.88 162.366 108.972 162.718 109.156C163.078 109.332 163.37 109.552 163.594 109.816C163.826 110.08 163.994 110.368 164.098 110.68C164.21 110.992 164.266 111.28 164.266 111.544V112.312H159.466ZM161.458 109.768C161.194 109.768 160.946 109.812 160.714 109.9C160.49 109.98 160.29 110.096 160.114 110.248C159.946 110.4 159.806 110.58 159.694 110.788C159.59 110.988 159.522 111.208 159.49 111.448H163.33C163.314 111.192 163.25 110.96 163.138 110.752C163.034 110.544 162.894 110.368 162.718 110.224C162.55 110.08 162.354 109.968 162.13 109.888C161.914 109.808 161.69 109.768 161.458 109.768ZM167.366 110.584C167.366 110.872 167.486 111.092 167.726 111.244C167.974 111.396 168.422 111.496 169.07 111.544C169.766 111.6 170.294 111.768 170.654 112.048C171.022 112.32 171.206 112.72 171.206 113.248V113.32C171.206 113.608 171.146 113.868 171.026 114.1C170.914 114.324 170.754 114.516 170.546 114.676C170.346 114.836 170.098 114.956 169.802 115.036C169.514 115.124 169.198 115.168 168.854 115.168C168.39 115.168 167.99 115.108 167.654 114.988C167.326 114.86 167.05 114.696 166.826 114.496C166.61 114.288 166.446 114.056 166.334 113.8C166.222 113.536 166.158 113.272 166.142 113.008L167.03 112.792C167.07 113.248 167.246 113.616 167.558 113.896C167.87 114.168 168.286 114.304 168.806 114.304C169.246 114.304 169.598 114.22 169.862 114.052C170.134 113.876 170.27 113.632 170.27 113.32C170.27 112.984 170.138 112.744 169.874 112.6C169.61 112.456 169.182 112.364 168.59 112.324C167.902 112.276 167.374 112.116 167.006 111.844C166.638 111.572 166.454 111.176 166.454 110.656V110.584C166.454 110.304 166.514 110.06 166.634 109.852C166.754 109.636 166.914 109.456 167.114 109.312C167.322 109.168 167.554 109.06 167.81 108.988C168.066 108.916 168.334 108.88 168.614 108.88C169.006 108.88 169.35 108.936 169.646 109.048C169.942 109.152 170.19 109.292 170.39 109.468C170.59 109.636 170.742 109.832 170.846 110.056C170.958 110.28 171.03 110.504 171.062 110.728L170.174 110.944C170.134 110.56 169.978 110.26 169.706 110.044C169.442 109.828 169.094 109.72 168.662 109.72C168.494 109.72 168.33 109.74 168.17 109.78C168.018 109.812 167.882 109.864 167.762 109.936C167.642 110.008 167.546 110.1 167.474 110.212C167.402 110.316 167.366 110.44 167.366 110.584Z" fill="white"/>
<path d="M195.228 80.732C195.228 81.1053 195.153 81.46 195.004 81.796C194.873 82.1133 194.687 82.3933 194.444 82.636C194.201 82.86 193.912 83.0373 193.576 83.168C193.259 83.3173 192.923 83.392 192.568 83.392C192.195 83.392 191.849 83.3173 191.532 83.168C191.215 83.0373 190.935 82.86 190.692 82.636C190.449 82.3933 190.253 82.1133 190.104 81.796C189.973 81.46 189.908 81.1053 189.908 80.732C189.908 80.3587 189.973 80.0133 190.104 79.696C190.253 79.36 190.449 79.08 190.692 78.856C190.935 78.6133 191.215 78.4267 191.532 78.296C191.849 78.1467 192.195 78.072 192.568 78.072C192.923 78.072 193.259 78.1467 193.576 78.296C193.912 78.4267 194.201 78.6133 194.444 78.856C194.687 79.08 194.873 79.36 195.004 79.696C195.153 80.0133 195.228 80.3587 195.228 80.732ZM195.228 71.38C195.228 71.7533 195.153 72.108 195.004 72.444C194.873 72.7613 194.687 73.0413 194.444 73.284C194.201 73.508 193.912 73.6947 193.576 73.844C193.259 73.9747 192.923 74.04 192.568 74.04C192.195 74.04 191.849 73.9747 191.532 73.844C191.215 73.6947 190.935 73.508 190.692 73.284C190.449 73.0413 190.253 72.7613 190.104 72.444C189.973 72.108 189.908 71.7533 189.908 71.38C189.908 71.0067 189.973 70.6613 190.104 70.344C190.253 70.008 190.449 69.728 190.692 69.504C190.935 69.2613 191.215 69.0747 191.532 68.944C191.849 68.7947 192.195 68.72 192.568 68.72C192.923 68.72 193.259 68.7947 193.576 68.944C193.912 69.0747 194.201 69.2613 194.444 69.504C194.687 69.728 194.873 70.008 195.004 70.344C195.153 70.6613 195.228 71.0067 195.228 71.38Z" fill="white"/>
<path d="M214.508 78.144V63.4H232.292V68.188H219.524V75.408H220.208C220.563 74.42 221.221 73.5713 222.184 72.862C223.172 72.1273 224.489 71.76 226.136 71.76C227.377 71.76 228.492 71.9753 229.48 72.406C230.468 72.8367 231.304 73.432 231.988 74.192C232.672 74.952 233.191 75.864 233.546 76.928C233.926 77.992 234.116 79.1573 234.116 80.424V80.652C234.116 81.9947 233.888 83.2613 233.432 84.452C233.001 85.6427 232.355 86.694 231.494 87.606C230.658 88.4927 229.619 89.202 228.378 89.734C227.137 90.266 225.705 90.532 224.084 90.532C222.463 90.532 221.031 90.3167 219.79 89.886C218.549 89.43 217.497 88.8093 216.636 88.024C215.8 87.2133 215.154 86.2633 214.698 85.174C214.267 84.0593 214.052 82.856 214.052 81.564V80.652H219.068V81.108C219.068 82.4507 219.473 83.5653 220.284 84.452C221.12 85.3133 222.336 85.744 223.932 85.744C225.528 85.744 226.782 85.3133 227.694 84.452C228.631 83.5907 229.1 82.4 229.1 80.88C229.1 79.436 228.758 78.3593 228.074 77.65C227.39 76.9153 226.491 76.548 225.376 76.548C224.641 76.548 224.046 76.7127 223.59 77.042C223.134 77.346 222.843 77.7133 222.716 78.144H214.508ZM242.906 82.476C242.906 83.3627 243.222 84.1353 243.856 84.794C244.514 85.4273 245.528 85.744 246.896 85.744C248.264 85.744 249.34 85.3513 250.126 84.566C250.936 83.7553 251.342 82.704 251.342 81.412V77.992H250.658C250.303 78.8787 249.72 79.6007 248.91 80.158C248.099 80.69 246.946 80.956 245.452 80.956C244.312 80.956 243.248 80.7533 242.26 80.348C241.297 79.9173 240.448 79.322 239.714 78.562C239.004 77.802 238.447 76.89 238.042 75.826C237.636 74.762 237.434 73.584 237.434 72.292V71.836C237.434 70.5693 237.662 69.3913 238.118 68.302C238.574 67.1873 239.207 66.2373 240.018 65.452C240.854 64.6413 241.854 64.008 243.02 63.552C244.21 63.096 245.528 62.868 246.972 62.868C248.289 62.868 249.518 63.0833 250.658 63.514C251.823 63.9447 252.824 64.5527 253.66 65.338C254.496 66.098 255.154 67.0227 255.636 68.112C256.117 69.176 256.358 70.354 256.358 71.646V81.336C256.358 82.78 256.117 84.072 255.636 85.212C255.154 86.352 254.496 87.3147 253.66 88.1C252.824 88.8853 251.836 89.4933 250.696 89.924C249.581 90.3293 248.365 90.532 247.048 90.532C245.756 90.532 244.552 90.3547 243.438 90C242.323 89.62 241.348 89.088 240.512 88.404C239.701 87.6947 239.055 86.846 238.574 85.858C238.118 84.87 237.89 83.7427 237.89 82.476H242.906ZM246.896 67.656C245.604 67.656 244.54 68.0487 243.704 68.834C242.868 69.594 242.45 70.62 242.45 71.912C242.45 73.204 242.868 74.2427 243.704 75.028C244.54 75.788 245.604 76.168 246.896 76.168C248.188 76.168 249.252 75.788 250.088 75.028C250.924 74.2427 251.342 73.204 251.342 71.912C251.342 70.62 250.924 69.594 250.088 68.834C249.252 68.0487 248.188 67.656 246.896 67.656Z" fill="white"/>
<path d="M217.652 109.024C217.652 108.752 217.596 108.512 217.484 108.304C217.38 108.096 217.236 107.924 217.052 107.788C216.868 107.652 216.656 107.548 216.416 107.476C216.176 107.404 215.924 107.368 215.66 107.368C215.428 107.368 215.208 107.4 215 107.464C214.792 107.52 214.604 107.604 214.436 107.716C214.276 107.828 214.148 107.968 214.052 108.136C213.956 108.296 213.908 108.484 213.908 108.7V108.772C213.908 109.004 213.956 109.204 214.052 109.372C214.148 109.532 214.288 109.672 214.472 109.792C214.664 109.904 214.9 110 215.18 110.08C215.46 110.152 215.788 110.216 216.164 110.272C217.044 110.408 217.692 110.668 218.108 111.052C218.524 111.428 218.732 111.936 218.732 112.576V112.72C218.732 113.08 218.668 113.412 218.54 113.716C218.42 114.012 218.236 114.268 217.988 114.484C217.748 114.7 217.448 114.868 217.088 114.988C216.728 115.108 216.312 115.168 215.84 115.168C215.304 115.168 214.828 115.092 214.412 114.94C214.004 114.78 213.66 114.564 213.38 114.292C213.108 114.012 212.9 113.688 212.756 113.32C212.612 112.944 212.54 112.536 212.54 112.096V111.736H213.548V112.024C213.548 112.76 213.748 113.312 214.148 113.68C214.556 114.048 215.12 114.232 215.84 114.232C216.464 114.232 216.932 114.096 217.244 113.824C217.564 113.544 217.724 113.176 217.724 112.72V112.648C217.724 112.208 217.56 111.872 217.232 111.64C216.912 111.408 216.388 111.24 215.66 111.136C215.236 111.08 214.852 110.996 214.508 110.884C214.172 110.764 213.884 110.612 213.644 110.428C213.404 110.236 213.22 110.008 213.092 109.744C212.964 109.48 212.9 109.168 212.9 108.808V108.664C212.9 108.336 212.968 108.036 213.104 107.764C213.24 107.492 213.428 107.256 213.668 107.056C213.916 106.856 214.208 106.704 214.544 106.6C214.888 106.488 215.264 106.432 215.672 106.432C216.144 106.432 216.564 106.5 216.932 106.636C217.308 106.772 217.624 106.956 217.88 107.188C218.136 107.412 218.328 107.68 218.456 107.992C218.592 108.296 218.66 108.616 218.66 108.952V109.456H217.652V109.024ZM221.076 112.312C221.1 112.904 221.284 113.38 221.628 113.74C221.972 114.1 222.452 114.28 223.068 114.28C223.348 114.28 223.592 114.248 223.8 114.184C224.008 114.12 224.184 114.032 224.328 113.92C224.48 113.808 224.6 113.68 224.688 113.536C224.784 113.384 224.86 113.224 224.916 113.056L225.804 113.296C225.636 113.848 225.324 114.3 224.868 114.652C224.42 114.996 223.812 115.168 223.044 115.168C222.62 115.168 222.228 115.096 221.868 114.952C221.516 114.8 221.212 114.588 220.956 114.316C220.7 114.044 220.5 113.72 220.356 113.344C220.212 112.968 220.14 112.552 220.14 112.096V111.808C220.14 111.392 220.212 111.004 220.356 110.644C220.508 110.284 220.716 109.976 220.98 109.72C221.244 109.456 221.552 109.252 221.904 109.108C222.264 108.956 222.652 108.88 223.068 108.88C223.556 108.88 223.976 108.972 224.328 109.156C224.688 109.332 224.98 109.552 225.204 109.816C225.436 110.08 225.604 110.368 225.708 110.68C225.82 110.992 225.876 111.28 225.876 111.544V112.312H221.076ZM223.068 109.768C222.804 109.768 222.556 109.812 222.324 109.9C222.1 109.98 221.9 110.096 221.724 110.248C221.556 110.4 221.416 110.58 221.304 110.788C221.2 110.988 221.132 111.208 221.1 111.448H224.94C224.924 111.192 224.86 110.96 224.748 110.752C224.644 110.544 224.504 110.368 224.328 110.224C224.16 110.08 223.964 109.968 223.74 109.888C223.524 109.808 223.3 109.768 223.068 109.768ZM233.307 112.888C233.243 113.216 233.131 113.52 232.971 113.8C232.819 114.08 232.623 114.324 232.383 114.532C232.143 114.732 231.863 114.888 231.543 115C231.223 115.112 230.867 115.168 230.475 115.168C230.059 115.168 229.663 115.1 229.287 114.964C228.919 114.828 228.595 114.632 228.315 114.376C228.035 114.112 227.811 113.792 227.643 113.416C227.483 113.04 227.403 112.608 227.403 112.12V111.976C227.403 111.496 227.483 111.064 227.643 110.68C227.811 110.296 228.035 109.972 228.315 109.708C228.595 109.444 228.919 109.24 229.287 109.096C229.663 108.952 230.059 108.88 230.475 108.88C230.851 108.88 231.199 108.936 231.519 109.048C231.839 109.16 232.119 109.32 232.359 109.528C232.607 109.728 232.807 109.968 232.959 110.248C233.119 110.528 233.227 110.832 233.283 111.16L232.347 111.376C232.323 111.168 232.263 110.968 232.167 110.776C232.079 110.576 231.955 110.404 231.795 110.26C231.643 110.108 231.455 109.988 231.231 109.9C231.007 109.812 230.747 109.768 230.451 109.768C230.163 109.768 229.891 109.824 229.635 109.936C229.387 110.04 229.167 110.192 228.975 110.392C228.783 110.584 228.631 110.816 228.519 111.088C228.415 111.36 228.363 111.656 228.363 111.976V112.12C228.363 112.456 228.415 112.76 228.519 113.032C228.631 113.296 228.783 113.52 228.975 113.704C229.167 113.888 229.391 114.032 229.647 114.136C229.903 114.232 230.179 114.28 230.475 114.28C230.771 114.28 231.027 114.236 231.243 114.148C231.467 114.052 231.655 113.932 231.807 113.788C231.967 113.636 232.091 113.464 232.179 113.272C232.275 113.08 232.339 112.88 232.371 112.672L233.307 112.888ZM240.703 112.096C240.703 112.592 240.619 113.032 240.451 113.416C240.291 113.792 240.075 114.112 239.803 114.376C239.531 114.632 239.211 114.828 238.843 114.964C238.483 115.1 238.107 115.168 237.715 115.168C237.315 115.168 236.935 115.1 236.575 114.964C236.215 114.828 235.899 114.632 235.627 114.376C235.355 114.112 235.135 113.792 234.967 113.416C234.807 113.032 234.727 112.592 234.727 112.096V111.952C234.727 111.464 234.807 111.032 234.967 110.656C235.135 110.272 235.355 109.948 235.627 109.684C235.907 109.42 236.227 109.22 236.587 109.084C236.947 108.948 237.323 108.88 237.715 108.88C238.107 108.88 238.483 108.948 238.843 109.084C239.203 109.22 239.519 109.42 239.791 109.684C240.071 109.948 240.291 110.272 240.451 110.656C240.619 111.032 240.703 111.464 240.703 111.952V112.096ZM237.715 114.28C238.003 114.28 238.267 114.232 238.507 114.136C238.755 114.032 238.971 113.884 239.155 113.692C239.339 113.5 239.483 113.272 239.587 113.008C239.691 112.736 239.743 112.432 239.743 112.096V111.952C239.743 111.632 239.691 111.34 239.587 111.076C239.483 110.804 239.339 110.572 239.155 110.38C238.971 110.188 238.755 110.04 238.507 109.936C238.259 109.824 237.995 109.768 237.715 109.768C237.435 109.768 237.171 109.824 236.923 109.936C236.675 110.04 236.459 110.188 236.275 110.38C236.091 110.572 235.947 110.804 235.843 111.076C235.739 111.34 235.687 111.632 235.687 111.952V112.096C235.687 112.432 235.739 112.736 235.843 113.008C235.947 113.272 236.091 113.5 236.275 113.692C236.459 113.884 236.671 114.032 236.911 114.136C237.159 114.232 237.427 114.28 237.715 114.28ZM243.371 115H242.435V109.048H243.371V110.056H243.515C243.883 109.272 244.523 108.88 245.435 108.88C246.123 108.88 246.671 109.096 247.079 109.528C247.487 109.952 247.691 110.592 247.691 111.448V115H246.755V111.64C246.755 111.016 246.615 110.548 246.335 110.236C246.055 109.924 245.675 109.768 245.195 109.768C244.627 109.768 244.179 109.964 243.851 110.356C243.531 110.74 243.371 111.256 243.371 111.904V115ZM254.39 114.088H254.246C254.15 114.272 254.026 114.432 253.874 114.568C253.73 114.704 253.57 114.816 253.394 114.904C253.226 114.992 253.046 115.056 252.854 115.096C252.662 115.144 252.478 115.168 252.302 115.168C251.902 115.168 251.53 115.1 251.186 114.964C250.842 114.828 250.538 114.632 250.274 114.376C250.018 114.12 249.814 113.804 249.662 113.428C249.518 113.044 249.446 112.608 249.446 112.12V111.928C249.446 111.448 249.522 111.02 249.674 110.644C249.826 110.26 250.03 109.94 250.286 109.684C250.542 109.42 250.842 109.22 251.186 109.084C251.53 108.948 251.894 108.88 252.278 108.88C252.686 108.88 253.066 108.972 253.418 109.156C253.778 109.332 254.054 109.608 254.246 109.984H254.39V106.6H255.326V115H254.39V114.088ZM252.398 114.28C252.678 114.28 252.938 114.228 253.178 114.124C253.418 114.02 253.626 113.872 253.802 113.68C253.986 113.488 254.13 113.26 254.234 112.996C254.338 112.724 254.39 112.424 254.39 112.096V111.952C254.39 111.632 254.338 111.34 254.234 111.076C254.13 110.804 253.986 110.572 253.802 110.38C253.626 110.188 253.414 110.04 253.166 109.936C252.926 109.824 252.67 109.768 252.398 109.768C252.118 109.768 251.854 109.82 251.606 109.924C251.366 110.028 251.154 110.176 250.97 110.368C250.794 110.56 250.654 110.788 250.55 111.052C250.454 111.316 250.406 111.608 250.406 111.928V112.12C250.406 112.456 250.454 112.756 250.55 113.02C250.654 113.284 250.794 113.512 250.97 113.704C251.154 113.888 251.366 114.032 251.606 114.136C251.846 114.232 252.11 114.28 252.398 114.28ZM258.366 110.584C258.366 110.872 258.486 111.092 258.726 111.244C258.974 111.396 259.422 111.496 260.07 111.544C260.766 111.6 261.294 111.768 261.654 112.048C262.022 112.32 262.206 112.72 262.206 113.248V113.32C262.206 113.608 262.146 113.868 262.026 114.1C261.914 114.324 261.754 114.516 261.546 114.676C261.346 114.836 261.098 114.956 260.802 115.036C260.514 115.124 260.198 115.168 259.854 115.168C259.39 115.168 258.99 115.108 258.654 114.988C258.326 114.86 258.05 114.696 257.826 114.496C257.61 114.288 257.446 114.056 257.334 113.8C257.222 113.536 257.158 113.272 257.142 113.008L258.03 112.792C258.07 113.248 258.246 113.616 258.558 113.896C258.87 114.168 259.286 114.304 259.806 114.304C260.246 114.304 260.598 114.22 260.862 114.052C261.134 113.876 261.27 113.632 261.27 113.32C261.27 112.984 261.138 112.744 260.874 112.6C260.61 112.456 260.182 112.364 259.59 112.324C258.902 112.276 258.374 112.116 258.006 111.844C257.638 111.572 257.454 111.176 257.454 110.656V110.584C257.454 110.304 257.514 110.06 257.634 109.852C257.754 109.636 257.914 109.456 258.114 109.312C258.322 109.168 258.554 109.06 258.81 108.988C259.066 108.916 259.334 108.88 259.614 108.88C260.006 108.88 260.35 108.936 260.646 109.048C260.942 109.152 261.19 109.292 261.39 109.468C261.59 109.636 261.742 109.832 261.846 110.056C261.958 110.28 262.03 110.504 262.062 110.728L261.174 110.944C261.134 110.56 260.978 110.26 260.706 110.044C260.442 109.828 260.094 109.72 259.662 109.72C259.494 109.72 259.33 109.74 259.17 109.78C259.018 109.812 258.882 109.864 258.762 109.936C258.642 110.008 258.546 110.1 258.474 110.212C258.402 110.316 258.366 110.44 258.366 110.584Z" fill="white"/>
</g>
<defs>
<filter id="filter0_b_51810_5431" x="-10" y="-10" width="315" height="164" filterUnits="userSpaceOnUse" color-interpolation-filters="sRGB">
<feFlood flood-opacity="0" result="BackgroundImageFix"/>
<feGaussianBlur in="BackgroundImageFix" stdDeviation="5"/>
<feComposite in2="SourceAlpha" operator="in" result="effect1_backgroundBlur_51810_5431"/>
<feBlend mode="normal" in="SourceGraphic" in2="effect1_backgroundBlur_51810_5431" result="shape"/>
</filter>
</defs>
</svg>
